<?xml version="1.0" encoding="UTF-8"?>
<svg id="Layer_1" xmlns="http://www.w3.org/2000/svg" version="1.1" viewBox="0 0 64 64">
  <!-- Generator: Adobe Illustrator 30.2.1, SVG Export Plug-In . SVG Version: 2.1.1 Build 1)  -->
  <defs>
    <style>
      .st0 {
        fill: #fff;
      }

      .st1 {
        fill: #1d1d1b;
      }
    </style>
  </defs>
  <path class="st1" d="M16.51,49.27s-1.21-10.71.25-16.92c1.46-6.21,2.92-9.12,5.42-11,1.6-1.17,3.39-2.05,5.29-2.62,0,0-1.62-5.33-2.37-5.54s-3.54.67-4.71-.17-3-3-3.21-2.83-.46,1-.75,1.17c-.88.15-1.78.02-2.58-.36-.58-.37-1.17-.92-.29-1.54,1.22-.66,2.61-.95,4-.83.75.21,3.63,3,4.08,3s3.92-1,5,.5,2.58,6,2.58,6c.84-.22,1.72-.28,2.58-.17.9.04,1.79.17,2.67.38,0,0,.33-3.46-1-4s-2.75-.12-2.92-1.62-.75-3-1.17-3-.75.33-1.54.42c-.93-.05-1.81-.46-2.45-1.14-.12-.42.42-1.75,2.42-2s4.46,2,4.58,3.25,0,2,.13,2.08,3.71,1,4,3c.08,1.17.08,2.33,0,3.5.13,0,6.25.54,9.21,10,1.78,5.77,2.27,11.85,1.46,17.83,2.18.71,3.68,2.71,3.75,5,0,3.88-3.83,5.54-6.92,5s-6.17-1.21-8.46-.87-3.83,1.46-5.83,1.25-5.73-2.19-8.8-1.44-5.83,1.29-7-.75c-.95-2-.1-4.38,1.9-5.33.22-.1.45-.19.68-.25Z"/>
  <path class="st0" d="M16,51.1c.81-.63,2.87-.62,2.92-.92-.86-4.52-1.1-9.13-.71-13.71.75-7.37,2.08-11.62,5.75-14.29s8-2.42,11.67-1.83c3.67.59,7.37,4.5,8.8,10.25,1.43,5.75.42,17.21.58,17.33s3.38.54,3.5,3.38-1.46,4.5-4.46,3.79c-2.75-.7-5.59-.94-8.42-.71-3.75.17-4.42,1-6.54.79s-3.21-2-7.08-1.42-5.5,1.25-6,.63-1.37-2.24-.01-3.29Z"/>
  <path class="st1" d="M16.93,52.69c.58-.53,1.35-.8,2.13-.75.75.08,1.88.25,1.79.63s0,.54-.42.54-1.08-.54-1.83-.17-1.17.71-1.37.67c-.3-.2-.43-.58-.3-.92Z"/>
  <path class="st1" d="M27.85,52.1c.29.06,1,1,1.88,1s2.13-.29,2.21,0,.25.92,0,1c-.96.12-1.93.06-2.87-.17-.58-.29-1.71-.71-1.75-1s.32-.87.53-.83Z"/>
  <path class="st1" d="M41.93,52.69c.96-.11,1.93-.08,2.88.08,1.25.21,1.38.25,1.38.46s-.19.77-.34.77c-.77-.19-1.54-.33-2.33-.42-.75,0-.92.13-1.33,0s-.38-.81-.26-.89Z"/>
  <path class="st1" d="M35.31,48.6c.31,0,2.21,2.63,2,2.75-.32.1-.66.16-1,.17,0,0-1.67-2.58-1.67-2.75s.36-.12.67-.17Z"/>
  <path class="st1" d="M37.43,48.44c-.08-.32.58,0,.83.13.58.86,1.01,1.8,1.29,2.79-.17,0-.71.13-.87,0-.47-.95-.89-1.92-1.25-2.92Z"/>
  <path class="st1" d="M39.68,48.31c-.14-.41.75-.25.83-.17.48.73.89,1.51,1.21,2.33-.08.17-.62.29-.75.17-.47-.75-.9-1.53-1.29-2.33Z"/>
  <path class="st1" d="M41.39,47.44s.38-.42.63-.25c.81.76,1.51,1.63,2.08,2.58-.08.25-.58.42-.58.42-.78-.86-1.49-1.78-2.13-2.75Z"/>
  <path class="st1" d="M42.35,45.44c-.15,0,.25-.75.46-.54.61.6,1.14,1.27,1.58,2,0,.29.08.71,0,.71s-1.88-2.13-2.04-2.17Z"/>
  <path class="st1" d="M21.18,29.31c-.12-.12.21-1.12.88-2.79s1.08-2.25,1.42-2.37.79,0,.75.17-1.25,2.17-1.62,3c-.2.65-.36,1.32-.46,2-.15.12-.89.08-.97-.01Z"/>
  <path class="st1" d="M26.13,31.77c1.29-1.67,3.25-1.92,6.7-2,3.45-.08,6.47,1.67,6.92,6.54.45,4.87-2.88,7.58-8.31,7.13s-6.84-4.37-7.18-6.21.74-4,1.87-5.46Z"/>
  <path class="st0" d="M32.7,31.56c2.76-.17,5.13,1.93,5.29,4.69,0,.03,0,.07,0,.1.18,3.79-3.3,5.75-6.84,5.38-2.72-.38-4.75-2.68-4.79-5.42-.04-1.66,1.24-4.62,6.33-4.75Z"/>
  <path class="st1" d="M31.22,34.9c1.19-.62,2.66-.17,3.28,1.02.13.25.22.53.26.81.25,2-2.79,3-4.13,1.63-.87-.69-1.01-1.94-.33-2.81.24-.3.56-.53.92-.65Z"/>
</svg>